<?xml version="1.0" encoding="utf-8" standalone="no"?>
<!DOCTYPE svg PUBLIC "-//W3C//DTD SVG 1.1//EN"
  "http://www.w3.org/Graphics/SVG/1.1/DTD/svg11.dtd">
<svg xmlns:xlink="http://www.w3.org/1999/xlink" width="340.690732pt" height="345.222281pt" viewBox="0 0 340.690732 345.222281" xmlns="http://www.w3.org/2000/svg" version="1.1">
 <metadata>
  <rdf:RDF xmlns:dc="http://purl.org/dc/elements/1.1/" xmlns:cc="http://creativecommons.org/ns#" xmlns:rdf="http://www.w3.org/1999/02/22-rdf-syntax-ns#">
   <cc:Work>
    <dc:type rdf:resource="http://purl.org/dc/dcmitype/StillImage"/>
    <dc:date>2026-08-14T15:51:45.400237</dc:date>
    <dc:format>image/svg+xml</dc:format>
    <dc:creator>
     <cc:Agent>
      <dc:title>Matplotlib v3.10.7, https://matplotlib.org/</dc:title>
     </cc:Agent>
    </dc:creator>
   </cc:Work>
  </rdf:RDF>
 </metadata>
 <defs>
  <style type="text/css">*{stroke-linejoin: round; stroke-linecap: butt}</style>
 </defs>
 <g id="figure_1">
  <g id="patch_1">
   <path d="M -0 345.222281 
L 340.690732 345.222281 
L 340.690732 0 
L -0 0 
z
" style="fill: #ffffff"/>
  </g>
  <g id="patch_2">
   <path d="M 7.999562 338.022281 
L 318.463562 338.022281 
L 318.463562 27.558281 
L 7.999562 27.558281 
z
" style="fill: #ffffff"/>
  </g>
  <g id="pane3d_1">
   <g id="patch_3">
    <path d="M 29.664379 260.030773 
L 138.346421 194.975034 
L 137.428234 64.345392 
L 24.893065 118.992419 
" style="fill: #f2f2f2; opacity: 0.04; stroke: #f2f2f2; stroke-linejoin: miter"/>
   </g>
  </g>
  <g id="pane3d_2">
   <g id="patch_4">
    <path d="M 138.346421 194.975034 
L 300.512501 234.246222 
L 304.960105 97.294571 
L 137.428234 64.345392 
" style="fill: #e6e6e6; opacity: 0.04; stroke: #e6e6e6; stroke-linejoin: miter"/>
   </g>
  </g>
  <g id="pane3d_3">
   <g id="patch_5">
    <path d="M 29.664379 260.030773 
L 201.209699 307.255073 
L 300.512501 234.246222 
L 138.346421 194.975034 
" style="fill: #ececec; opacity: 0.04; stroke: #ececec; stroke-linejoin: miter"/>
   </g>
  </g>
  <g id="grid3d_1">
   <g id="Line3DCollection_1">
    <path d="M 52.815568 266.404008 
L 160.332585 200.299346 
L 160.106814 68.805681 
" style="fill: none; stroke: #b0b0b0; stroke-width: 0.8"/>
    <path d="M 76.75776 272.994997 
L 183.036748 205.797533 
L 183.537535 73.413897 
" style="fill: none; stroke: #b0b0b0; stroke-width: 0.8"/>
    <path d="M 101.115633 279.700417 
L 206.100534 211.382809 
L 207.351391 78.097466 
" style="fill: none; stroke: #b0b0b0; stroke-width: 0.8"/>
    <path d="M 125.900108 286.523276 
L 229.532556 217.057259 
L 231.557858 82.858251 
" style="fill: none; stroke: #b0b0b0; stroke-width: 0.8"/>
    <path d="M 151.122491 293.466685 
L 253.341703 222.823036 
L 256.166725 87.698177 
" style="fill: none; stroke: #b0b0b0; stroke-width: 0.8"/>
    <path d="M 176.794491 300.533869 
L 277.537154 228.682363 
L 281.18811 92.619235 
" style="fill: none; stroke: #b0b0b0; stroke-width: 0.8"/>
   </g>
  </g>
  <g id="grid3d_2">
   <g id="Line3DCollection_2">
    <path d="M 37.692937 112.776807 
L 41.993575 252.650667 
L 212.528051 298.933657 
" style="fill: none; stroke: #b0b0b0; stroke-width: 0.8"/>
    <path d="M 51.751813 105.949823 
L 55.545046 244.538923 
L 224.952707 289.798871 
" style="fill: none; stroke: #b0b0b0; stroke-width: 0.8"/>
    <path d="M 65.500596 99.27342 
L 68.807312 236.600293 
L 237.096259 280.870757 
" style="fill: none; stroke: #b0b0b0; stroke-width: 0.8"/>
    <path d="M 78.949435 92.74267 
L 81.789536 228.829293 
L 248.968139 272.14238 
" style="fill: none; stroke: #b0b0b0; stroke-width: 0.8"/>
    <path d="M 92.108037 86.352859 
L 94.500492 221.22067 
L 260.577363 263.607111 
" style="fill: none; stroke: #b0b0b0; stroke-width: 0.8"/>
    <path d="M 104.9857 80.099472 
L 106.948597 213.769387 
L 271.932553 255.258612 
" style="fill: none; stroke: #b0b0b0; stroke-width: 0.8"/>
    <path d="M 117.591324 73.978187 
L 119.14192 206.470613 
L 283.041956 247.090819 
" style="fill: none; stroke: #b0b0b0; stroke-width: 0.8"/>
    <path d="M 129.93344 67.984861 
L 131.088203 199.319714 
L 293.913467 239.097927 
" style="fill: none; stroke: #b0b0b0; stroke-width: 0.8"/>
   </g>
  </g>
  <g id="grid3d_3">
   <g id="Line3DCollection_3">
    <path d="M 300.680393 229.07644 
L 138.311701 190.035414 
L 29.484471 254.712739 
" style="fill: none; stroke: #b0b0b0; stroke-width: 0.8"/>
    <path d="M 301.326124 209.192947 
L 138.178207 171.043361 
L 28.792376 234.25466 
" style="fill: none; stroke: #b0b0b0; stroke-width: 0.8"/>
    <path d="M 301.978144 189.115809 
L 138.043484 151.876349 
L 28.093301 213.590259 
" style="fill: none; stroke: #b0b0b0; stroke-width: 0.8"/>
    <path d="M 302.636544 168.842183 
L 137.907513 132.531948 
L 27.38714 192.716398 
" style="fill: none; stroke: #b0b0b0; stroke-width: 0.8"/>
    <path d="M 303.30142 148.369172 
L 137.770278 113.007685 
L 26.673785 171.629876 
" style="fill: none; stroke: #b0b0b0; stroke-width: 0.8"/>
    <path d="M 303.972867 127.693818 
L 137.631762 93.30104 
L 25.953125 150.327427 
" style="fill: none; stroke: #b0b0b0; stroke-width: 0.8"/>
    <path d="M 304.650983 106.813108 
L 137.491945 73.409444 
L 25.225048 128.805718 
" style="fill: none; stroke: #b0b0b0; stroke-width: 0.8"/>
   </g>
  </g>
  <g id="axis3d_1">
   <g id="line2d_1">
    <path d="M 29.664379 260.030773 
L 201.209699 307.255073 
" style="fill: none; stroke: #000000; stroke-width: 0.8; stroke-linecap: square"/>
   </g>
   <g id="xtick_1">
    <g id="line2d_2">
     <path d="M 53.756251 265.825648 
L 50.929929 267.563355 
" style="fill: none; stroke: #000000; stroke-width: 0.8; stroke-linecap: square"/>
    </g>
    <g id="text_1">
     <text style="font-size: 10.5px; font-family: 'DejaVu Sans', 'Bitstream Vera Sans', 'Computer Modern Sans Serif', 'Lucida Grande', 'Verdana', 'Geneva', 'Lucid', 'Arial', 'Helvetica', 'Avant Garde', sans-serif; text-anchor: middle" x="44.686696" y="289.353313" transform="rotate(-0 44.686696 289.353313)">−0.6</text>
    </g>
   </g>
   <g id="xtick_2">
    <g id="line2d_3">
     <path d="M 77.688296 272.406643 
L 74.892425 274.1744 
" style="fill: none; stroke: #000000; stroke-width: 0.8; stroke-linecap: square"/>
    </g>
    <g id="text_2">
     <text style="font-size: 10.5px; font-family: 'DejaVu Sans', 'Bitstream Vera Sans', 'Computer Modern Sans Serif', 'Lucida Grande', 'Verdana', 'Geneva', 'Lucid', 'Arial', 'Helvetica', 'Avant Garde', sans-serif; text-anchor: middle" x="68.663352" y="296.102539" transform="rotate(-0 68.663352 296.102539)">−0.4</text>
    </g>
   </g>
   <g id="xtick_3">
    <g id="line2d_4">
     <path d="M 102.035527 279.101808 
L 99.271595 280.900402 
" style="fill: none; stroke: #000000; stroke-width: 0.8; stroke-linecap: square"/>
    </g>
    <g id="text_3">
     <text style="font-size: 10.5px; font-family: 'DejaVu Sans', 'Bitstream Vera Sans', 'Computer Modern Sans Serif', 'Lucida Grande', 'Verdana', 'Geneva', 'Lucid', 'Arial', 'Helvetica', 'Avant Garde', sans-serif; text-anchor: middle" x="93.058125" y="302.969461" transform="rotate(-0 93.058125 302.969461)">−0.2</text>
    </g>
   </g>
   <g id="xtick_4">
    <g id="line2d_5">
     <path d="M 126.808843 285.914141 
L 124.078404 287.744385 
" style="fill: none; stroke: #000000; stroke-width: 0.8; stroke-linecap: square"/>
    </g>
    <g id="text_4">
     <text style="font-size: 10.5px; font-family: 'DejaVu Sans', 'Bitstream Vera Sans', 'Computer Modern Sans Serif', 'Lucida Grande', 'Verdana', 'Geneva', 'Lucid', 'Arial', 'Helvetica', 'Avant Garde', sans-serif; text-anchor: middle" x="117.882047" y="309.957186" transform="rotate(-0 117.882047 309.957186)">0.0</text>
    </g>
   </g>
   <g id="xtick_5">
    <g id="line2d_6">
     <path d="M 152.019527 292.846744 
L 149.324201 294.709483 
" style="fill: none; stroke: #000000; stroke-width: 0.8; stroke-linecap: square"/>
    </g>
    <g id="text_5">
     <text style="font-size: 10.5px; font-family: 'DejaVu Sans', 'Bitstream Vera Sans', 'Computer Modern Sans Serif', 'Lucida Grande', 'Verdana', 'Geneva', 'Lucid', 'Arial', 'Helvetica', 'Avant Garde', sans-serif; text-anchor: middle" x="143.146543" y="317.068928" transform="rotate(-0 143.146543 317.068928)">0.2</text>
    </g>
   </g>
   <g id="xtick_6">
    <g id="line2d_7">
     <path d="M 177.679265 299.902832 
L 175.020745 301.798937 
" style="fill: none; stroke: #000000; stroke-width: 0.8; stroke-linecap: square"/>
    </g>
    <g id="text_6">
     <text style="font-size: 10.5px; font-family: 'DejaVu Sans', 'Bitstream Vera Sans', 'Computer Modern Sans Serif', 'Lucida Grande', 'Verdana', 'Geneva', 'Lucid', 'Arial', 'Helvetica', 'Avant Garde', sans-serif; text-anchor: middle" x="168.863448" y="324.30802" transform="rotate(-0 168.863448 324.30802)">0.4</text>
    </g>
   </g>
   <g id="text_7">
    <text style="font-size: 10.5px; font-family: 'DejaVu Sans', 'Bitstream Vera Sans', 'Computer Modern Sans Serif', 'Lucida Grande', 'Verdana', 'Geneva', 'Lucid', 'Arial', 'Helvetica', 'Avant Garde', sans-serif; text-anchor: middle" x="95.932046" y="316.598529" transform="rotate(-344.60843 95.932046 316.598529)">NMDS1</text>
   </g>
  </g>
  <g id="axis3d_2">
   <g id="line2d_8">
    <path d="M 300.512501 234.246222 
L 201.209699 307.255073 
" style="fill: none; stroke: #000000; stroke-width: 0.8; stroke-linecap: square"/>
   </g>
   <g id="xtick_7">
    <g id="line2d_9">
     <path d="M 211.080531 298.540801 
L 215.427371 299.720531 
" style="fill: none; stroke: #000000; stroke-width: 0.8; stroke-linecap: square"/>
    </g>
    <g id="text_8">
     <text style="font-size: 10.5px; font-family: 'DejaVu Sans', 'Bitstream Vera Sans', 'Computer Modern Sans Serif', 'Lucida Grande', 'Verdana', 'Geneva', 'Lucid', 'Arial', 'Helvetica', 'Avant Garde', sans-serif; text-anchor: middle" x="225.31381" y="320.525739" transform="rotate(-0 225.31381 320.525739)">−0.4</text>
    </g>
   </g>
   <g id="xtick_8">
    <g id="line2d_10">
     <path d="M 223.515698 289.414951 
L 227.830927 290.567833 
" style="fill: none; stroke: #000000; stroke-width: 0.8; stroke-linecap: square"/>
    </g>
    <g id="text_9">
     <text style="font-size: 10.5px; font-family: 'DejaVu Sans', 'Bitstream Vera Sans', 'Computer Modern Sans Serif', 'Lucida Grande', 'Verdana', 'Geneva', 'Lucid', 'Arial', 'Helvetica', 'Avant Garde', sans-serif; text-anchor: middle" x="237.614963" y="311.217944" transform="rotate(-0 237.614963 311.217944)">−0.2</text>
    </g>
   </g>
   <g id="xtick_9">
    <g id="line2d_11">
     <path d="M 235.669657 280.495472 
L 239.953586 281.622411 
" style="fill: none; stroke: #000000; stroke-width: 0.8; stroke-linecap: square"/>
    </g>
    <g id="text_10">
     <text style="font-size: 10.5px; font-family: 'DejaVu Sans', 'Bitstream Vera Sans', 'Computer Modern Sans Serif', 'Lucida Grande', 'Verdana', 'Geneva', 'Lucid', 'Arial', 'Helvetica', 'Avant Garde', sans-serif; text-anchor: middle" x="249.637294" y="302.121122" transform="rotate(-0 249.637294 302.121122)">0.0</text>
    </g>
   </g>
   <g id="xtick_10">
    <g id="line2d_12">
     <path d="M 247.551841 271.775441 
L 251.804782 272.877305 
" style="fill: none; stroke: #000000; stroke-width: 0.8; stroke-linecap: square"/>
    </g>
    <g id="text_11">
     <text style="font-size: 10.5px; font-family: 'DejaVu Sans', 'Bitstream Vera Sans', 'Computer Modern Sans Serif', 'Lucida Grande', 'Verdana', 'Geneva', 'Lucid', 'Arial', 'Helvetica', 'Avant Garde', sans-serif; text-anchor: middle" x="261.390178" y="293.22818" transform="rotate(-0 261.390178 293.22818)">0.2</text>
    </g>
   </g>
   <g id="xtick_11">
    <g id="line2d_13">
     <path d="M 259.171266 263.248244 
L 263.393532 264.325858 
" style="fill: none; stroke: #000000; stroke-width: 0.8; stroke-linecap: square"/>
    </g>
    <g id="text_12">
     <text style="font-size: 10.5px; font-family: 'DejaVu Sans', 'Bitstream Vera Sans', 'Computer Modern Sans Serif', 'Lucida Grande', 'Verdana', 'Geneva', 'Lucid', 'Arial', 'Helvetica', 'Avant Garde', sans-serif; text-anchor: middle" x="272.882572" y="284.53234" transform="rotate(-0 272.882572 284.53234)">0.4</text>
    </g>
   </g>
   <g id="xtick_12">
    <g id="line2d_14">
     <path d="M 270.53655 254.907553 
L 274.72846 255.96171 
" style="fill: none; stroke: #000000; stroke-width: 0.8; stroke-linecap: square"/>
    </g>
    <g id="text_13">
     <text style="font-size: 10.5px; font-family: 'DejaVu Sans', 'Bitstream Vera Sans', 'Computer Modern Sans Serif', 'Lucida Grande', 'Verdana', 'Geneva', 'Lucid', 'Arial', 'Helvetica', 'Avant Garde', sans-serif; text-anchor: middle" x="284.123042" y="276.027122" transform="rotate(-0 284.123042 276.027122)">0.6</text>
    </g>
   </g>
   <g id="xtick_13">
    <g id="line2d_15">
     <path d="M 281.655943 246.747316 
L 285.817814 247.778774 
" style="fill: none; stroke: #000000; stroke-width: 0.8; stroke-linecap: square"/>
    </g>
    <g id="text_14">
     <text style="font-size: 10.5px; font-family: 'DejaVu Sans', 'Bitstream Vera Sans', 'Computer Modern Sans Serif', 'Lucida Grande', 'Verdana', 'Geneva', 'Lucid', 'Arial', 'Helvetica', 'Avant Garde', sans-serif; text-anchor: middle" x="295.119781" y="267.706325" transform="rotate(-0 295.119781 267.706325)">0.8</text>
    </g>
   </g>
   <g id="xtick_14">
    <g id="line2d_16">
     <path d="M 292.537339 238.761739 
L 296.669489 239.771223 
" style="fill: none; stroke: #000000; stroke-width: 0.8; stroke-linecap: square"/>
    </g>
    <g id="text_15">
     <text style="font-size: 10.5px; font-family: 'DejaVu Sans', 'Bitstream Vera Sans', 'Computer Modern Sans Serif', 'Lucida Grande', 'Verdana', 'Geneva', 'Lucid', 'Arial', 'Helvetica', 'Avant Garde', sans-serif; text-anchor: middle" x="305.880632" y="259.564015" transform="rotate(-0 305.880632 259.564015)">1.0</text>
    </g>
   </g>
   <g id="text_16">
    <text style="font-size: 10.5px; font-family: 'DejaVu Sans', 'Bitstream Vera Sans', 'Computer Modern Sans Serif', 'Lucida Grande', 'Verdana', 'Geneva', 'Lucid', 'Arial', 'Helvetica', 'Avant Garde', sans-serif; text-anchor: middle" x="279.7342" y="297.49937" transform="rotate(-36.323861 279.7342 297.49937)">NMDS2</text>
   </g>
  </g>
  <g id="axis3d_3">
   <g id="line2d_17">
    <path d="M 300.512501 234.246222 
L 304.960105 97.294571 
" style="fill: none; stroke: #000000; stroke-width: 0.8; stroke-linecap: square"/>
   </g>
   <g id="xtick_15">
    <g id="line2d_18">
     <path d="M 299.308513 228.746576 
L 303.427887 229.737066 
" style="fill: none; stroke: #000000; stroke-width: 0.8; stroke-linecap: square"/>
    </g>
    <g id="text_17">
     <text style="font-size: 10.5px; font-family: 'DejaVu Sans', 'Bitstream Vera Sans', 'Computer Modern Sans Serif', 'Lucida Grande', 'Verdana', 'Geneva', 'Lucid', 'Arial', 'Helvetica', 'Avant Garde', sans-serif; text-anchor: middle" x="319.267091" y="235.297789" transform="rotate(-0 319.267091 235.297789)">−0.3</text>
    </g>
   </g>
   <g id="xtick_16">
    <g id="line2d_19">
     <path d="M 299.947305 208.870532 
L 304.087532 209.838659 
" style="fill: none; stroke: #000000; stroke-width: 0.8; stroke-linecap: square"/>
    </g>
    <g id="text_18">
     <text style="font-size: 10.5px; font-family: 'DejaVu Sans', 'Bitstream Vera Sans', 'Computer Modern Sans Serif', 'Lucida Grande', 'Verdana', 'Geneva', 'Lucid', 'Arial', 'Helvetica', 'Avant Garde', sans-serif; text-anchor: middle" x="320.001108" y="215.453988" transform="rotate(-0 320.001108 215.453988)">−0.2</text>
    </g>
   </g>
   <g id="xtick_17">
    <g id="line2d_20">
     <path d="M 300.592315 188.801003 
L 304.753608 189.746284 
" style="fill: none; stroke: #000000; stroke-width: 0.8; stroke-linecap: square"/>
    </g>
    <g id="text_19">
     <text style="font-size: 10.5px; font-family: 'DejaVu Sans', 'Bitstream Vera Sans', 'Computer Modern Sans Serif', 'Lucida Grande', 'Verdana', 'Geneva', 'Lucid', 'Arial', 'Helvetica', 'Avant Garde', sans-serif; text-anchor: middle" x="320.742256" y="195.4174" transform="rotate(-0 320.742256 195.4174)">−0.1</text>
    </g>
   </g>
   <g id="xtick_18">
    <g id="line2d_21">
     <path d="M 301.243635 168.535153 
L 305.426208 169.457092 
" style="fill: none; stroke: #000000; stroke-width: 0.8; stroke-linecap: square"/>
    </g>
    <g id="text_20">
     <text style="font-size: 10.5px; font-family: 'DejaVu Sans', 'Bitstream Vera Sans', 'Computer Modern Sans Serif', 'Lucida Grande', 'Verdana', 'Geneva', 'Lucid', 'Arial', 'Helvetica', 'Avant Garde', sans-serif; text-anchor: middle" x="321.490639" y="175.185201" transform="rotate(-0 321.490639 175.185201)">0.0</text>
    </g>
   </g>
   <g id="xtick_19">
    <g id="line2d_22">
     <path d="M 301.901358 148.070084 
L 306.105429 148.968176 
" style="fill: none; stroke: #000000; stroke-width: 0.8; stroke-linecap: square"/>
    </g>
    <g id="text_21">
     <text style="font-size: 10.5px; font-family: 'DejaVu Sans', 'Bitstream Vera Sans', 'Computer Modern Sans Serif', 'Lucida Grande', 'Verdana', 'Geneva', 'Lucid', 'Arial', 'Helvetica', 'Avant Garde', sans-serif; text-anchor: middle" x="322.246365" y="154.754513" transform="rotate(-0 322.246365 154.754513)">0.1</text>
    </g>
   </g>
   <g id="xtick_20">
    <g id="line2d_23">
     <path d="M 302.565578 127.402846 
L 306.791369 128.276573 
" style="fill: none; stroke: #000000; stroke-width: 0.8; stroke-linecap: square"/>
    </g>
    <g id="text_22">
     <text style="font-size: 10.5px; font-family: 'DejaVu Sans', 'Bitstream Vera Sans', 'Computer Modern Sans Serif', 'Lucida Grande', 'Verdana', 'Geneva', 'Lucid', 'Arial', 'Helvetica', 'Avant Garde', sans-serif; text-anchor: middle" x="323.009541" y="134.1224" transform="rotate(-0 323.009541 134.1224)">0.2</text>
    </g>
   </g>
   <g id="xtick_21">
    <g id="line2d_24">
     <path d="M 303.236392 106.530428 
L 307.484129 107.37926 
" style="fill: none; stroke: #000000; stroke-width: 0.8; stroke-linecap: square"/>
    </g>
    <g id="text_23">
     <text style="font-size: 10.5px; font-family: 'DejaVu Sans', 'Bitstream Vera Sans', 'Computer Modern Sans Serif', 'Lucida Grande', 'Verdana', 'Geneva', 'Lucid', 'Arial', 'Helvetica', 'Avant Garde', sans-serif; text-anchor: middle" x="323.780278" y="113.285869" transform="rotate(-0 323.780278 113.285869)">0.3</text>
    </g>
   </g>
   <g id="text_24">
    <text style="font-size: 10.5px; font-family: 'DejaVu Sans', 'Bitstream Vera Sans', 'Computer Modern Sans Serif', 'Lucida Grande', 'Verdana', 'Geneva', 'Lucid', 'Arial', 'Helvetica', 'Avant Garde', sans-serif; text-anchor: middle" x="343.228902" y="163.735129" transform="rotate(-88.139932 343.228902 163.735129)">NMDS3</text>
   </g>
  </g>
  <g id="axes_1">
   <g id="Path3DCollection_1">
    <defs>
     <path id="C0_0_3c7ee59f26" d="M 0 4.743416 
C 1.257969 4.743416 2.464584 4.24362 3.354102 3.354102 
C 4.24362 2.464584 4.743416 1.257969 4.743416 -0 
C 4.743416 -1.257969 4.24362 -2.464584 3.354102 -3.354102 
C 2.464584 -4.24362 1.257969 -4.743416 0 -4.743416 
C -1.257969 -4.743416 -2.464584 -4.24362 -3.354102 -3.354102 
C -4.24362 -2.464584 -4.743416 -1.257969 -4.743416 0 
C -4.743416 1.257969 -4.24362 2.464584 -3.354102 3.354102 
C -2.464584 4.24362 -1.257969 4.743416 0 4.743416 
z
"/>
    </defs>
    <g clip-path="url(#p97c71d2b93)">
     <use xlink:href="#C0_0_3c7ee59f26" x="163.667972" y="140.637366" style="fill: #009e73; fill-opacity: 0.3; stroke: #ffffff; stroke-opacity: 0.3; stroke-width: 1.2"/>
    </g>
    <g clip-path="url(#p97c71d2b93)">
     <use xlink:href="#C0_0_3c7ee59f26" x="113.762453" y="114.477708" style="fill: #009e73; fill-opacity: 0.735073; stroke: #ffffff; stroke-opacity: 0.735073; stroke-width: 1.2"/>
    </g>
    <g clip-path="url(#p97c71d2b93)">
     <use xlink:href="#C0_0_3c7ee59f26" x="134.218486" y="219.301192" style="fill: #009e73; stroke: #ffffff; stroke-width: 1.2"/>
    </g>
   </g>
   <g id="text_25">
    <text style="font-size: 8.5px; font-family: 'DejaVu Sans', 'Bitstream Vera Sans', 'Computer Modern Sans Serif', 'Lucida Grande', 'Verdana', 'Geneva', 'Lucid', 'Arial', 'Helvetica', 'Avant Garde', sans-serif; text-anchor: middle; fill: #555555" x="163.231562" y="33.767561" transform="rotate(-0 163.231562 33.767561)">stress=0.003   PERMANOVA (pH): F=20.1, R²=0.87, p=0.008</text>
   </g>
   <g id="text_26">
    <text style="font-size: 11px; font-family: 'DejaVu Sans', 'Bitstream Vera Sans', 'Computer Modern Sans Serif', 'Lucida Grande', 'Verdana', 'Geneva', 'Lucid', 'Arial', 'Helvetica', 'Avant Garde', sans-serif; text-anchor: middle" x="163.231562" y="15.558281" transform="rotate(-0 163.231562 15.558281)">Day-0 community COD profiles · 3-D NMDS (Bray–Curtis)</text>
   </g>
   <g id="Path3DCollection_2">
    <defs>
     <path id="C1_0_d2e0ea0b63" d="M 0 4.743416 
C 1.257969 4.743416 2.464584 4.24362 3.354102 3.354102 
C 4.24362 2.464584 4.743416 1.257969 4.743416 -0 
C 4.743416 -1.257969 4.24362 -2.464584 3.354102 -3.354102 
C 2.464584 -4.24362 1.257969 -4.743416 0 -4.743416 
C -1.257969 -4.743416 -2.464584 -4.24362 -3.354102 -3.354102 
C -4.24362 -2.464584 -4.743416 -1.257969 -4.743416 0 
C -4.743416 1.257969 -4.24362 2.464584 -3.354102 3.354102 
C -2.464584 4.24362 -1.257969 4.743416 0 4.743416 
z
"/>
    </defs>
    <g clip-path="url(#p97c71d2b93)">
     <use xlink:href="#C1_0_d2e0ea0b63" x="167.709878" y="270.527497" style="fill: #d55e00; fill-opacity: 0.3; stroke: #ffffff; stroke-opacity: 0.3; stroke-width: 1.2"/>
    </g>
    <g clip-path="url(#p97c71d2b93)">
     <use xlink:href="#C1_0_d2e0ea0b63" x="156.997651" y="268.810537" style="fill: #d55e00; fill-opacity: 0.590652; stroke: #ffffff; stroke-opacity: 0.590652; stroke-width: 1.2"/>
    </g>
    <g clip-path="url(#p97c71d2b93)">
     <use xlink:href="#C1_0_d2e0ea0b63" x="177.108863" y="242.7063" style="fill: #d55e00; stroke: #ffffff; stroke-width: 1.2"/>
    </g>
   </g>
   <g id="Path3DCollection_3">
    <defs>
     <path id="C2_0_98f5d03470" d="M 0 4.743416 
C 1.257969 4.743416 2.464584 4.24362 3.354102 3.354102 
C 4.24362 2.464584 4.743416 1.257969 4.743416 -0 
C 4.743416 -1.257969 4.24362 -2.464584 3.354102 -3.354102 
C 2.464584 -4.24362 1.257969 -4.743416 0 -4.743416 
C -1.257969 -4.743416 -2.464584 -4.24362 -3.354102 -3.354102 
C -4.24362 -2.464584 -4.743416 -1.257969 -4.743416 0 
C -4.743416 1.257969 -4.24362 2.464584 -3.354102 3.354102 
C -2.464584 4.24362 -1.257969 4.743416 0 4.743416 
z
"/>
    </defs>
    <g clip-path="url(#p97c71d2b93)">
     <use xlink:href="#C2_0_98f5d03470" x="130.062108" y="135.281067" style="fill: #0072b2; fill-opacity: 0.3; stroke: #ffffff; stroke-opacity: 0.3; stroke-width: 1.2"/>
    </g>
    <g clip-path="url(#p97c71d2b93)">
     <use xlink:href="#C2_0_98f5d03470" x="222.316431" y="169.074034" style="fill: #0072b2; fill-opacity: 0.734453; stroke: #ffffff; stroke-opacity: 0.734453; stroke-width: 1.2"/>
    </g>
    <g clip-path="url(#p97c71d2b93)">
     <use xlink:href="#C2_0_98f5d03470" x="210.582335" y="194.703915" style="fill: #0072b2; stroke: #ffffff; stroke-width: 1.2"/>
    </g>
   </g>
   <g id="legend_1">
    <g id="text_27">
     <text style="font-size: 10.5px; font-family: 'DejaVu Sans', 'Bitstream Vera Sans', 'Computer Modern Sans Serif', 'Lucida Grande', 'Verdana', 'Geneva', 'Lucid', 'Arial', 'Helvetica', 'Avant Garde', sans-serif; text-anchor: start" x="35.489875" y="76.033041" transform="rotate(-0 35.489875 76.033041)">pH</text>
    </g>
    <g id="Path3DCollection_4">
     <defs>
      <path id="m9b63a31b81" d="M 0 4.743416 
C 1.257969 4.743416 2.464584 4.24362 3.354102 3.354102 
C 4.24362 2.464584 4.743416 1.257969 4.743416 0 
C 4.743416 -1.257969 4.24362 -2.464584 3.354102 -3.354102 
C 2.464584 -4.24362 1.257969 -4.743416 0 -4.743416 
C -1.257969 -4.743416 -2.464584 -4.24362 -3.354102 -3.354102 
C -4.24362 -2.464584 -4.743416 -1.257969 -4.743416 0 
C -4.743416 1.257969 -4.24362 2.464584 -3.354102 3.354102 
C -2.464584 4.24362 -1.257969 4.743416 0 4.743416 
z
" style="stroke: #ffffff; stroke-width: 1.2"/>
     </defs>
     <g>
      <use xlink:href="#m9b63a31b81" x="27.949562" y="88.688822" style="fill: #d55e00; stroke: #ffffff; stroke-width: 1.2"/>
     </g>
    </g>
    <g id="text_28">
     <text style="font-size: 10.5px; font-family: 'DejaVu Sans', 'Bitstream Vera Sans', 'Computer Modern Sans Serif', 'Lucida Grande', 'Verdana', 'Geneva', 'Lucid', 'Arial', 'Helvetica', 'Avant Garde', sans-serif; text-anchor: start" x="46.849562" y="91.445072" transform="rotate(-0 46.849562 91.445072)">pH5</text>
    </g>
    <g id="Path3DCollection_5">
     <defs>
      <path id="m8945e0c323" d="M 0 4.743416 
C 1.257969 4.743416 2.464584 4.24362 3.354102 3.354102 
C 4.24362 2.464584 4.743416 1.257969 4.743416 0 
C 4.743416 -1.257969 4.24362 -2.464584 3.354102 -3.354102 
C 2.464584 -4.24362 1.257969 -4.743416 0 -4.743416 
C -1.257969 -4.743416 -2.464584 -4.24362 -3.354102 -3.354102 
C -4.24362 -2.464584 -4.743416 -1.257969 -4.743416 0 
C -4.743416 1.257969 -4.24362 2.464584 -3.354102 3.354102 
C -2.464584 4.24362 -1.257969 4.743416 0 4.743416 
z
" style="stroke: #ffffff; stroke-width: 1.2"/>
     </defs>
     <g>
      <use xlink:href="#m8945e0c323" x="27.949562" y="104.100853" style="fill: #009e73; stroke: #ffffff; stroke-width: 1.2"/>
     </g>
    </g>
    <g id="text_29">
     <text style="font-size: 10.5px; font-family: 'DejaVu Sans', 'Bitstream Vera Sans', 'Computer Modern Sans Serif', 'Lucida Grande', 'Verdana', 'Geneva', 'Lucid', 'Arial', 'Helvetica', 'Avant Garde', sans-serif; text-anchor: start" x="46.849562" y="106.857103" transform="rotate(-0 46.849562 106.857103)">pH7</text>
    </g>
    <g id="Path3DCollection_6">
     <defs>
      <path id="m532e42beaf" d="M 0 4.743416 
C 1.257969 4.743416 2.464584 4.24362 3.354102 3.354102 
C 4.24362 2.464584 4.743416 1.257969 4.743416 0 
C 4.743416 -1.257969 4.24362 -2.464584 3.354102 -3.354102 
C 2.464584 -4.24362 1.257969 -4.743416 0 -4.743416 
C -1.257969 -4.743416 -2.464584 -4.24362 -3.354102 -3.354102 
C -4.24362 -2.464584 -4.743416 -1.257969 -4.743416 0 
C -4.743416 1.257969 -4.24362 2.464584 -3.354102 3.354102 
C -2.464584 4.24362 -1.257969 4.743416 0 4.743416 
z
" style="stroke: #ffffff; stroke-width: 1.2"/>
     </defs>
     <g>
      <use xlink:href="#m532e42beaf" x="27.949562" y="119.512884" style="fill: #0072b2; stroke: #ffffff; stroke-width: 1.2"/>
     </g>
    </g>
    <g id="text_30">
     <text style="font-size: 10.5px; font-family: 'DejaVu Sans', 'Bitstream Vera Sans', 'Computer Modern Sans Serif', 'Lucida Grande', 'Verdana', 'Geneva', 'Lucid', 'Arial', 'Helvetica', 'Avant Garde', sans-serif; text-anchor: start" x="46.849562" y="122.269134" transform="rotate(-0 46.849562 122.269134)">pH9</text>
    </g>
   </g>
  </g>
 </g>
 <defs>
  <clipPath id="p97c71d2b93">
   <rect x="7.999562" y="27.558281" width="310.464" height="310.464"/>
  </clipPath>
 </defs>
</svg>
